{"title":"Body.Double.1984.DVDRIP-ZEKTORM","uid":4712467,"size":803747613,"categoryP":"video","categoryS":"movies","magnet":"?xt=urn:btih:74fb69a08304e069ef66dd5e4a2030a22224f992&amp;dn=Body.Double.1984.DVDRIP-ZEKTORM&amp;tr=udp%3A%2F%2Ftracker.openbittorrent.com%3A80&amp;tr=udp%3A%2F%2Fopen.demonii.com%3A1337&amp;tr=udp%3A%2F%2Ftracker.coppersurfer.tk%3A6969&amp;tr=udp%3A%2F%2Fexodus.desync.com%3A6969","seeders":2,"leechers":1,"uploader":"blowley","files":4,"time":1234094294,"description":"Title                            : Body Double\nYear                             : 1984\nGenre                            : Drama | Mystery | Thriller\niMDB Rate                        : User Rating: 6.4/10   7,657 votes\niMDB URL                         : http://www.imdb.com/title/tt0086984/\nAwards                           : Nominated for Golden Globe. Another 1 win &amp; 1 nomination\n\nComplete name                    : Body.Double.1984.DVDRIP-ZEKTORM.mp4\nFormat                           : MPEG-4\nFormat profile                   : Base Media\nCodec ID                         : isom\nFile size                        : 700 MiB\nDuration                         : 1h 49mn\nOverall bit rate                 : 893 Kbps\nSubtitles                        : English, Spanish, French, Deutsch, Dutch, Svenska,\n                                   Norsk, Dansk, Finnish, Portuguese, Hebrew, Polish, Greek, \n                                   Czech, Turkish, Hungarian, Islenska, Hindi, Italian (Format: VobSub)\nSource                           : DVD PAL\nEncoded date                     : UTC 2009-02-06 20:25:11\n\nVideo\nFormat                           : AVC\nFormat/Info                      : Advanced Video Codec\nFormat profile                   : &lt;a class=&quot;__cf_email__&quot; href=&quot;/cdn-cgi/l/email-protection&quot; data-cfemail=&quot;3870515f5078740c1609&quot;&gt;[email&amp;#160;protected]&lt;/a&gt;&lt;script cf-hash='f9e31' type=&quot;text/javascript&quot;&gt;\n/* &lt;![CDATA[ */!function(){try{var t=&quot;currentScript&quot;in document?document.currentScript:function(){for(var t=document.getElementsByTagName(&quot;script&quot;),e=t.length;e--;)if(t[e].getAttribute(&quot;cf-hash&quot;))return t[e]}();if(t&amp;&amp;t.previousSibling){var e,r,n,i,c=t.previousSibling,a=c.getAttribute(&quot;data-cfemail&quot;);if(a){for(e=&quot;&quot;,r=parseInt(a.substr(0,2),16),n=2;a.length-n;n+=2)i=parseInt(a.substr(n,2),16)^r,e+=String.fromCharCode(i);e=document.createTextNode(e),c.parentNode.replaceChild(e,c)}}}catch(u){}}();/* ]]&gt; */&lt;/script&gt;\nFormat settings, CABAC           : Yes\nFormat settings, ReFrames        : 10 frames\nCodec ID                         : avc1\nCodec ID/Info                    : Advanced Video Coding\nDuration                         : 1h 49mn\nBit rate mode                    : Variable\nBit rate                         : 802 Kbps\nMaximum bit rate                 : 3 802 Kbps\nWidth                            : 704 pixels\nHeight                           : 528 pixels\nDisplay aspect ratio             : 1.939\nFrame rate mode                  : Constant\nFrame rate                       : 25.000 fps\nResolution                       : 24 bits\nColorimetry                      : 4:2:0\nScan type                        : Progressive\nBits/(Pixel*Frame)               : 0.086\nStream size                      : 629 MiB (90%)\nTitle                            : Video\nWriting library                  : x264 core 60 r900 a9af942\n\nAudio\nFormat                           : AAC\nFormat/Info                      : Advanced Audio Codec\nFormat version                   : Version 4\nFormat profile                   : LC\nFormat settings, SBR             : Yes\nFormat settings, PS              : No\nCodec ID                         : 40\nDuration                         : 1h 49mn\nBit rate mode                    : Variable\nBit rate                         : 88.0 Kbps\nMaximum bit rate                 : 114 Kbps\nChannel(s)                       : 2 channels\nChannel positions                : L R\nSampling rate                    : 48.0 KHz\nResolution                       : 16 bits\nStream size                      : 69.0 MiB (10%)\nTitle                            : English\nLanguage                         : English\n\nNotes                            : Convert to DVD with Nero\n","torrent":{"xt":"urn:btih:74fb69a08304e069ef66dd5e4a2030a22224f992","amp;dn":"Body.Double.1984.DVDRIP-ZEKTORM","amp;tr":["udp%3A%2F%2Ftracker.openbittorrent.com%3A80","udp%3A%2F%2Fopen.demonii.com%3A1337","udp%3A%2F%2Ftracker.coppersurfer.tk%3A6969","udp%3A%2F%2Fexodus.desync.com%3A6969"],"infoHash":"74fb69a08304e069ef66dd5e4a2030a22224f992","infoHashBuffer":{"type":"Buffer","data":[116,251,105,160,131,4,224,105,239,102,221,94,74,32,48,162,34,36,249,146]},"announce":[],"urlList":[]}}